<svg width="133" id="Layer_1" xmlns="http://www.w3.org/2000/svg" viewBox="0 0 237 42"><style>.st0{fill:#fff}.st1{fill:none}</style><title>АвтоКод</title><g id="Page-1"><path id="АвтоКод" class="st0" d="M82 36.3h7L76.7 1.8h-4.9L59.4 36.3h6.7l2.6-7.6h10.5l2.8 7.6zm-9.1-20.6l1-5.4h.2l1 5.4 2.5 7.6h-7.4l2.7-7.6zm18.4 20.6c1.1.1 2.5.2 4 .3s3 .1 4.4.1c4.1 0 7.2-.6 9-1.8 1.9-1.2 2.9-3.3 2.8-5.5.1-1.4-.4-2.7-1.2-3.8-1-1.1-2.3-1.9-3.8-2.1v-.2c1.3-.4 2.4-1.2 3.1-2.4.6-1 1-2.2 1-3.3.1-1.8-.8-3.6-2.3-4.6s-4.1-1.5-7.7-1.5c-1.9 0-3.6 0-5.2.1s-3 .2-4.1.3v24.4zm6.2-10.6h3.3c1.2-.1 2.4.2 3.4.8.6.5 1 1.3 1 2.1.1.9-.4 1.8-1.1 2.3-1.2.6-2.5.8-3.8.7h-1.5c-.4 0-.8-.1-1.3-.1v-5.8zm0-3.9v-5.1c.4 0 .8-.1 1.2-.1.4 0 1-.1 1.8 0 1.1-.1 2.2.1 3.1.7.6.5.9 1.2.9 1.9 0 .8-.4 1.5-1 1.9-.7.5-1.7.8-2.6.8l-3.4-.1zm35.7-10h-20.4v5.6h7v18.9h6.6V17.4h6.8v-5.6zm1.5 17.5c.4 1.5 1.2 2.9 2.2 4.1 1 1.1 2.2 2 3.6 2.6 1.6.7 3.4 1 5.1.9 3.7 0 6.5-1.1 8.5-3.4s3-5.4 3-9.6c0-1.8-.2-3.6-.7-5.3-.4-1.5-1.1-2.9-2.1-4.1-1-1.1-2.2-2-3.6-2.6-1.6-.7-3.4-1-5.1-.9-3.7 0-6.5 1.1-8.5 3.4-2 2.2-3 5.4-3 9.6-.1 1.8.1 3.6.6 5.3zm7.2-11c.9-1.2 2.2-1.8 3.7-1.8 1.6-.1 3.1.7 3.8 2.1.8 1.7 1.2 3.6 1.1 5.5 0 2.6-.4 4.5-1.2 5.7-.8 1.2-2.2 1.9-3.7 1.8-.8 0-1.6-.2-2.3-.6-.6-.4-1.2-.9-1.5-1.6-.4-.7-.7-1.6-.9-2.4-.2-1-.3-2-.3-3 0-2.6.4-4.6 1.3-5.7zm37.9 18h8.3l-11.4-16.1-2.7-1.9 2.6-1.9 10-14.4H179l-9.5 14.5-1.6.7V2h-6.7v34.3h6.7V21.6h1.8l10.1 14.7zm7-7c.4 1.5 1.2 2.9 2.2 4.1 1 1.1 2.2 2 3.6 2.6 1.6.7 3.4 1 5.1.9 3.7 0 6.5-1.1 8.5-3.4s3-5.4 3-9.6c0-1.8-.2-3.6-.7-5.3-.4-1.5-1.1-2.9-2.1-4.1-1-1.1-2.2-2-3.6-2.6-1.6-.7-3.4-1-5.1-.9-3.7 0-6.5 1.1-8.5 3.4-2 2.2-3 5.4-3 9.6-.1 1.8.1 3.6.6 5.3zm7.2-11c.9-1.2 2.2-1.8 3.7-1.8 1.6-.1 3.1.7 3.8 2.1.8 1.7 1.2 3.6 1.1 5.5 0 2.6-.4 4.5-1.2 5.7-.8 1.2-2.2 1.9-3.7 1.8-.8 0-1.6-.2-2.3-.6-.6-.4-1.2-.9-1.5-1.6-.4-.7-.7-1.6-.9-2.4-.2-1-.3-2-.3-3 0-2.6.4-4.6 1.3-5.7zm42.5 12.4h-3.6V11.8h-17.1c0 2.6-.1 5.3-.4 7.9-.2 1.9-.6 3.7-1.1 5.6-.3 1.2-.7 2.4-1.2 3.6-.3.6-.6 1.3-1 1.8h-2.9v11.2h4.7l.7-5.6h16.5l.7 5.6h4.7V30.7zm-18 .3c.4-.9.8-1.8 1.1-2.7.3-1.1.6-2.2.9-3.5.2-1.2.4-2.5.6-3.8.2-1.3.3-2.6.3-3.7h5.1V31h-8z"/></g><path class="st1" d="M37 27.3c1.9 0 3.4-1.5 3.4-3.4s-1.5-3.4-3.4-3.4c-.6 0-.9.1-1.6.4-.9.6-1.9 1.7-1.9 3s1 2.5 1.9 3c.7.2 1.1.4 1.6.4z"/><circle class="st1" cx="10.7" cy="24.2" r="3.4"/><path class="st1" d="M36.8 7.7C36.1 6.5 34.7 6 33.3 6H14.7c-1.6 0-3 .8-3.7 2l-3.5 8.3h33.1c-.4-1.3-.9-2.4-1.4-3.7v-.1c-1.1-2.2-2.1-4.3-2.4-4.8zm.2 12.8c-.6 0-.9.1-1.6.4-.9.6-1.9 1.7-1.9 3s1 2.5 1.9 3c.6.2 1 .4 1.5.4 1.9 0 3.4-1.5 3.4-3.4.1-1.9-1.4-3.4-3.3-3.4z"/><circle class="st1" cx="10.7" cy="24.2" r="3.4"/><path class="st1" d="M39.1 12.6c-.9-2.3-1.9-4.4-2.3-4.9-.7-1.2-2.1-1.7-3.5-1.7H14.7c-1.6 0-3 .8-3.7 2l-3.5 8.3h33.1c-.5-1.3-1-2.4-1.5-3.7z"/><path class="st0" d="M44.6 16.4c-1.6-3.9-4-9.6-4.5-10.4l-.2-.4c-1.4-2.1-3.9-3.5-6.6-3.5H14.7C11 2.1 8 4.6 7 7.9l-3.7 8.5C2 16.8 1 18.1 1 19.6v11.5c0 1.7 1.5 3.1 3 3.2v3.3c0 1.3 1.1 2.1 2.4 2.1h5.1c1.3 0 2.2-.8 2.2-2.1v-3.3H34v3.2c0 1.3 1 2.2 2.3 2.2h5.1c1.3 0 2.6-1 2.6-2.2v-3.1c1.5-.1 3-1.5 3-3.2V19.6c0-1.5-1.1-2.7-2.4-3.2zM10.7 27.6c-1.9 0-3.4-1.5-3.4-3.4s1.5-3.4 3.4-3.4 3.4 1.5 3.4 3.4c.1 1.9-1.5 3.4-3.4 3.4zm26.3-.3c-.6 0-.9-.1-1.5-.4-.9-.6-1.9-1.7-1.9-3s1-2.5 1.9-3c.6-.2 1-.4 1.6-.4 1.9 0 3.4 1.5 3.4 3.4-.1 1.9-1.6 3.4-3.5 3.4zm-1.5-11H7.4L10.9 8c.8-1.3 2.2-2 3.7-2h18.6c1.5 0 2.8.6 3.5 1.7.3.5 3.3 7.3 3.7 8.6h-4.9z"/></svg>